<mxfile host="app.diagrams.net" agent="Mozilla/5.0 (Windows NT 10.0; Win64; x64; rv:137.0) Gecko/20100101 Firefox/137.0" version="26.2.13">
  <diagram name="Page-1" id="paUp1CwUZgLKzcmMBPhS">
    <mxGraphModel dx="1028" dy="1705" grid="1" gridSize="10" guides="1" tooltips="1" connect="1" arrows="1" fold="1" page="1" pageScale="1" pageWidth="850" pageHeight="1100" math="0" shadow="0">
      <root>
        <mxCell id="0" />
        <mxCell id="1" parent="0" />
        <mxCell id="7htmvvLscnNH-VEx_-nR-2" value="&lt;div&gt;Student&lt;/div&gt;" style="shape=umlActor;verticalLabelPosition=bottom;verticalAlign=top;html=1;outlineConnect=0;" vertex="1" parent="1">
          <mxGeometry x="70" y="-40" width="100" height="140" as="geometry" />
        </mxCell>
        <mxCell id="7htmvvLscnNH-VEx_-nR-44" style="edgeStyle=orthogonalEdgeStyle;rounded=0;orthogonalLoop=1;jettySize=auto;html=1;exitX=0;exitY=0.5;exitDx=0;exitDy=0;" edge="1" parent="1" source="7htmvvLscnNH-VEx_-nR-8" target="7htmvvLscnNH-VEx_-nR-2">
          <mxGeometry relative="1" as="geometry" />
        </mxCell>
        <mxCell id="7htmvvLscnNH-VEx_-nR-8" value="Register / &lt;br&gt;Login" style="ellipse;whiteSpace=wrap;html=1;" vertex="1" parent="1">
          <mxGeometry x="280" y="-30" width="90" height="70" as="geometry" />
        </mxCell>
        <mxCell id="7htmvvLscnNH-VEx_-nR-43" style="edgeStyle=orthogonalEdgeStyle;rounded=0;orthogonalLoop=1;jettySize=auto;html=1;exitX=0;exitY=0.5;exitDx=0;exitDy=0;" edge="1" parent="1" source="7htmvvLscnNH-VEx_-nR-11" target="7htmvvLscnNH-VEx_-nR-2">
          <mxGeometry relative="1" as="geometry" />
        </mxCell>
        <mxCell id="7htmvvLscnNH-VEx_-nR-11" value="Scan QR for Library Entry" style="ellipse;whiteSpace=wrap;html=1;" vertex="1" parent="1">
          <mxGeometry x="280" y="-110" width="90" height="70" as="geometry" />
        </mxCell>
        <mxCell id="7htmvvLscnNH-VEx_-nR-42" style="edgeStyle=orthogonalEdgeStyle;rounded=0;orthogonalLoop=1;jettySize=auto;html=1;exitX=0;exitY=0.5;exitDx=0;exitDy=0;" edge="1" parent="1" source="7htmvvLscnNH-VEx_-nR-12" target="7htmvvLscnNH-VEx_-nR-2">
          <mxGeometry relative="1" as="geometry" />
        </mxCell>
        <mxCell id="7htmvvLscnNH-VEx_-nR-12" value="Borrow Book" style="ellipse;whiteSpace=wrap;html=1;" vertex="1" parent="1">
          <mxGeometry x="280" y="-190" width="90" height="70" as="geometry" />
        </mxCell>
        <mxCell id="7htmvvLscnNH-VEx_-nR-15" value="Scan Book Barcode" style="ellipse;whiteSpace=wrap;html=1;" vertex="1" parent="1">
          <mxGeometry x="430" y="130" width="90" height="70" as="geometry" />
        </mxCell>
        <mxCell id="7htmvvLscnNH-VEx_-nR-28" value="&lt;font style=&quot;font-size: 6px;&quot;&gt;&amp;lt;&amp;lt;include&amp;gt;&amp;gt;&lt;/font&gt;" style="edgeStyle=orthogonalEdgeStyle;rounded=0;orthogonalLoop=1;jettySize=auto;html=1;exitX=1;exitY=0.5;exitDx=0;exitDy=0;entryX=0;entryY=0.5;entryDx=0;entryDy=0;dashed=1;" edge="1" parent="1" source="7htmvvLscnNH-VEx_-nR-16" target="7htmvvLscnNH-VEx_-nR-15">
          <mxGeometry y="-15" relative="1" as="geometry">
            <mxPoint as="offset" />
          </mxGeometry>
        </mxCell>
        <mxCell id="7htmvvLscnNH-VEx_-nR-46" style="edgeStyle=orthogonalEdgeStyle;rounded=0;orthogonalLoop=1;jettySize=auto;html=1;exitX=0;exitY=0.5;exitDx=0;exitDy=0;" edge="1" parent="1" source="7htmvvLscnNH-VEx_-nR-16" target="7htmvvLscnNH-VEx_-nR-2">
          <mxGeometry relative="1" as="geometry" />
        </mxCell>
        <mxCell id="7htmvvLscnNH-VEx_-nR-16" value="Return Book" style="ellipse;whiteSpace=wrap;html=1;" vertex="1" parent="1">
          <mxGeometry x="280" y="130" width="90" height="70" as="geometry" />
        </mxCell>
        <mxCell id="7htmvvLscnNH-VEx_-nR-17" value="Scan Book Barcode" style="ellipse;whiteSpace=wrap;html=1;" vertex="1" parent="1">
          <mxGeometry x="430" y="50" width="90" height="70" as="geometry" />
        </mxCell>
        <mxCell id="7htmvvLscnNH-VEx_-nR-48" style="edgeStyle=orthogonalEdgeStyle;rounded=0;orthogonalLoop=1;jettySize=auto;html=1;exitX=0;exitY=0.5;exitDx=0;exitDy=0;" edge="1" parent="1" source="7htmvvLscnNH-VEx_-nR-19" target="7htmvvLscnNH-VEx_-nR-2">
          <mxGeometry relative="1" as="geometry" />
        </mxCell>
        <mxCell id="7htmvvLscnNH-VEx_-nR-19" value="View Book History" style="ellipse;whiteSpace=wrap;html=1;" vertex="1" parent="1">
          <mxGeometry x="280" y="290" width="90" height="70" as="geometry" />
        </mxCell>
        <mxCell id="7htmvvLscnNH-VEx_-nR-47" style="edgeStyle=orthogonalEdgeStyle;rounded=0;orthogonalLoop=1;jettySize=auto;html=1;exitX=0;exitY=0.5;exitDx=0;exitDy=0;" edge="1" parent="1" source="7htmvvLscnNH-VEx_-nR-20" target="7htmvvLscnNH-VEx_-nR-2">
          <mxGeometry relative="1" as="geometry" />
        </mxCell>
        <mxCell id="7htmvvLscnNH-VEx_-nR-20" value="View Due Dates" style="ellipse;whiteSpace=wrap;html=1;" vertex="1" parent="1">
          <mxGeometry x="280" y="210" width="90" height="70" as="geometry" />
        </mxCell>
        <mxCell id="7htmvvLscnNH-VEx_-nR-36" value="&amp;lt;&amp;lt;extend&amp;gt;&amp;gt;" style="edgeStyle=orthogonalEdgeStyle;rounded=0;orthogonalLoop=1;jettySize=auto;html=1;exitX=1;exitY=0;exitDx=0;exitDy=0;entryX=0.5;entryY=1;entryDx=0;entryDy=0;dashed=1;" edge="1" parent="1" source="7htmvvLscnNH-VEx_-nR-21" target="7htmvvLscnNH-VEx_-nR-35">
          <mxGeometry relative="1" as="geometry" />
        </mxCell>
        <mxCell id="7htmvvLscnNH-VEx_-nR-39" style="edgeStyle=orthogonalEdgeStyle;rounded=0;orthogonalLoop=1;jettySize=auto;html=1;exitX=1;exitY=1;exitDx=0;exitDy=0;entryX=0.5;entryY=0;entryDx=0;entryDy=0;dashed=1;" edge="1" parent="1" source="7htmvvLscnNH-VEx_-nR-21" target="7htmvvLscnNH-VEx_-nR-38">
          <mxGeometry relative="1" as="geometry" />
        </mxCell>
        <mxCell id="7htmvvLscnNH-VEx_-nR-40" value="&amp;lt;&amp;lt;extend&amp;gt;&amp;gt;" style="edgeLabel;html=1;align=center;verticalAlign=middle;resizable=0;points=[];" vertex="1" connectable="0" parent="7htmvvLscnNH-VEx_-nR-39">
          <mxGeometry x="0.1757" y="-1" relative="1" as="geometry">
            <mxPoint as="offset" />
          </mxGeometry>
        </mxCell>
        <mxCell id="7htmvvLscnNH-VEx_-nR-41" style="edgeStyle=orthogonalEdgeStyle;rounded=0;orthogonalLoop=1;jettySize=auto;html=1;exitX=0;exitY=0.5;exitDx=0;exitDy=0;" edge="1" parent="1" source="7htmvvLscnNH-VEx_-nR-21" target="7htmvvLscnNH-VEx_-nR-2">
          <mxGeometry relative="1" as="geometry" />
        </mxCell>
        <mxCell id="7htmvvLscnNH-VEx_-nR-21" value="Receive Notifications" style="ellipse;whiteSpace=wrap;html=1;" vertex="1" parent="1">
          <mxGeometry x="280" y="-270" width="90" height="70" as="geometry" />
        </mxCell>
        <mxCell id="7htmvvLscnNH-VEx_-nR-27" value="&lt;font style=&quot;font-size: 7px;&quot;&gt;&amp;lt;&amp;lt;include&amp;gt;&amp;gt;&lt;/font&gt;" style="edgeStyle=orthogonalEdgeStyle;rounded=0;orthogonalLoop=1;jettySize=auto;html=1;exitX=1;exitY=0.5;exitDx=0;exitDy=0;entryX=0;entryY=0.5;entryDx=0;entryDy=0;dashed=1;" edge="1" parent="1" source="7htmvvLscnNH-VEx_-nR-24" target="7htmvvLscnNH-VEx_-nR-17">
          <mxGeometry y="-15" relative="1" as="geometry">
            <mxPoint as="offset" />
          </mxGeometry>
        </mxCell>
        <mxCell id="7htmvvLscnNH-VEx_-nR-45" style="edgeStyle=orthogonalEdgeStyle;rounded=0;orthogonalLoop=1;jettySize=auto;html=1;exitX=0;exitY=0.5;exitDx=0;exitDy=0;" edge="1" parent="1" source="7htmvvLscnNH-VEx_-nR-24" target="7htmvvLscnNH-VEx_-nR-2">
          <mxGeometry relative="1" as="geometry" />
        </mxCell>
        <mxCell id="7htmvvLscnNH-VEx_-nR-24" value="Search Books" style="ellipse;whiteSpace=wrap;html=1;" vertex="1" parent="1">
          <mxGeometry x="280" y="50" width="90" height="70" as="geometry" />
        </mxCell>
        <mxCell id="7htmvvLscnNH-VEx_-nR-35" value="Overdue Book Alert" style="ellipse;whiteSpace=wrap;html=1;" vertex="1" parent="1">
          <mxGeometry x="430" y="-360" width="90" height="70" as="geometry" />
        </mxCell>
        <mxCell id="7htmvvLscnNH-VEx_-nR-38" value=" Due Date Reminder" style="ellipse;whiteSpace=wrap;html=1;" vertex="1" parent="1">
          <mxGeometry x="430" y="-190" width="90" height="70" as="geometry" />
        </mxCell>
        <mxCell id="7htmvvLscnNH-VEx_-nR-50" value="Admin/Librarian" style="shape=umlActor;verticalLabelPosition=bottom;verticalAlign=top;html=1;outlineConnect=0;" vertex="1" parent="1">
          <mxGeometry x="70" y="695" width="100" height="140" as="geometry" />
        </mxCell>
        <mxCell id="7htmvvLscnNH-VEx_-nR-59" style="edgeStyle=orthogonalEdgeStyle;rounded=0;orthogonalLoop=1;jettySize=auto;html=1;exitX=0;exitY=0.5;exitDx=0;exitDy=0;" edge="1" parent="1" source="7htmvvLscnNH-VEx_-nR-51" target="7htmvvLscnNH-VEx_-nR-50">
          <mxGeometry relative="1" as="geometry" />
        </mxCell>
        <mxCell id="7htmvvLscnNH-VEx_-nR-51" value="Login to Web Portal" style="ellipse;whiteSpace=wrap;html=1;" vertex="1" parent="1">
          <mxGeometry x="250" y="490" width="90" height="70" as="geometry" />
        </mxCell>
        <mxCell id="7htmvvLscnNH-VEx_-nR-61" value="&amp;lt;&amp;lt;include&amp;gt;&amp;gt;" style="edgeStyle=orthogonalEdgeStyle;rounded=0;orthogonalLoop=1;jettySize=auto;html=1;exitX=1;exitY=0.5;exitDx=0;exitDy=0;entryX=0;entryY=0.5;entryDx=0;entryDy=0;dashed=1;" edge="1" parent="1" source="7htmvvLscnNH-VEx_-nR-52" target="7htmvvLscnNH-VEx_-nR-60">
          <mxGeometry relative="1" as="geometry" />
        </mxCell>
        <mxCell id="7htmvvLscnNH-VEx_-nR-79" style="edgeStyle=orthogonalEdgeStyle;rounded=0;orthogonalLoop=1;jettySize=auto;html=1;exitX=0;exitY=0.5;exitDx=0;exitDy=0;" edge="1" parent="1" source="7htmvvLscnNH-VEx_-nR-52" target="7htmvvLscnNH-VEx_-nR-50">
          <mxGeometry relative="1" as="geometry" />
        </mxCell>
        <mxCell id="7htmvvLscnNH-VEx_-nR-52" value="Manage Student Accounts" style="ellipse;whiteSpace=wrap;html=1;" vertex="1" parent="1">
          <mxGeometry x="250" y="1000" width="90" height="70" as="geometry" />
        </mxCell>
        <mxCell id="7htmvvLscnNH-VEx_-nR-66" value="&amp;lt;&amp;lt;Include&amp;gt;&amp;gt;" style="edgeStyle=orthogonalEdgeStyle;rounded=0;orthogonalLoop=1;jettySize=auto;html=1;exitX=1;exitY=0;exitDx=0;exitDy=0;entryX=0;entryY=0.5;entryDx=0;entryDy=0;dashed=1;" edge="1" parent="1" source="7htmvvLscnNH-VEx_-nR-53" target="7htmvvLscnNH-VEx_-nR-62">
          <mxGeometry relative="1" as="geometry" />
        </mxCell>
        <mxCell id="7htmvvLscnNH-VEx_-nR-67" value="&amp;lt;&amp;lt;include&amp;gt;&amp;gt;" style="edgeStyle=orthogonalEdgeStyle;rounded=0;orthogonalLoop=1;jettySize=auto;html=1;exitX=1;exitY=0.5;exitDx=0;exitDy=0;entryX=0;entryY=0.5;entryDx=0;entryDy=0;dashed=1;" edge="1" parent="1" source="7htmvvLscnNH-VEx_-nR-53" target="7htmvvLscnNH-VEx_-nR-65">
          <mxGeometry relative="1" as="geometry" />
        </mxCell>
        <mxCell id="7htmvvLscnNH-VEx_-nR-74" style="edgeStyle=orthogonalEdgeStyle;rounded=0;orthogonalLoop=1;jettySize=auto;html=1;exitX=0;exitY=0.5;exitDx=0;exitDy=0;" edge="1" parent="1" source="7htmvvLscnNH-VEx_-nR-53" target="7htmvvLscnNH-VEx_-nR-50">
          <mxGeometry relative="1" as="geometry" />
        </mxCell>
        <mxCell id="7htmvvLscnNH-VEx_-nR-53" value="Manage Books" style="ellipse;whiteSpace=wrap;html=1;" vertex="1" parent="1">
          <mxGeometry x="250" y="580" width="90" height="70" as="geometry" />
        </mxCell>
        <mxCell id="7htmvvLscnNH-VEx_-nR-75" style="edgeStyle=orthogonalEdgeStyle;rounded=0;orthogonalLoop=1;jettySize=auto;html=1;exitX=0;exitY=0.5;exitDx=0;exitDy=0;" edge="1" parent="1" source="7htmvvLscnNH-VEx_-nR-54" target="7htmvvLscnNH-VEx_-nR-50">
          <mxGeometry relative="1" as="geometry" />
        </mxCell>
        <mxCell id="7htmvvLscnNH-VEx_-nR-54" value="Monitor Library Attendance" style="ellipse;whiteSpace=wrap;html=1;" vertex="1" parent="1">
          <mxGeometry x="250" y="670" width="90" height="70" as="geometry" />
        </mxCell>
        <mxCell id="7htmvvLscnNH-VEx_-nR-78" style="edgeStyle=orthogonalEdgeStyle;rounded=0;orthogonalLoop=1;jettySize=auto;html=1;exitX=0;exitY=0.5;exitDx=0;exitDy=0;" edge="1" parent="1" source="7htmvvLscnNH-VEx_-nR-55" target="7htmvvLscnNH-VEx_-nR-50">
          <mxGeometry relative="1" as="geometry" />
        </mxCell>
        <mxCell id="7htmvvLscnNH-VEx_-nR-55" value="Track Overdue Books" style="ellipse;whiteSpace=wrap;html=1;" vertex="1" parent="1">
          <mxGeometry x="250" y="920" width="90" height="70" as="geometry" />
        </mxCell>
        <mxCell id="7htmvvLscnNH-VEx_-nR-76" style="edgeStyle=orthogonalEdgeStyle;rounded=0;orthogonalLoop=1;jettySize=auto;html=1;exitX=0;exitY=0.5;exitDx=0;exitDy=0;" edge="1" parent="1" source="7htmvvLscnNH-VEx_-nR-56" target="7htmvvLscnNH-VEx_-nR-50">
          <mxGeometry relative="1" as="geometry" />
        </mxCell>
        <mxCell id="7htmvvLscnNH-VEx_-nR-56" value="Manage Borrow/Return Logs" style="ellipse;whiteSpace=wrap;html=1;" vertex="1" parent="1">
          <mxGeometry x="250" y="750" width="90" height="70" as="geometry" />
        </mxCell>
        <mxCell id="7htmvvLscnNH-VEx_-nR-72" value="&amp;lt;&amp;lt;include&amp;gt;&amp;gt;" style="edgeStyle=orthogonalEdgeStyle;rounded=0;orthogonalLoop=1;jettySize=auto;html=1;exitX=1;exitY=0;exitDx=0;exitDy=0;entryX=0;entryY=0.5;entryDx=0;entryDy=0;dashed=1;" edge="1" parent="1" source="7htmvvLscnNH-VEx_-nR-57" target="7htmvvLscnNH-VEx_-nR-70">
          <mxGeometry relative="1" as="geometry" />
        </mxCell>
        <mxCell id="7htmvvLscnNH-VEx_-nR-77" style="edgeStyle=orthogonalEdgeStyle;rounded=0;orthogonalLoop=1;jettySize=auto;html=1;exitX=0;exitY=0.5;exitDx=0;exitDy=0;" edge="1" parent="1" source="7htmvvLscnNH-VEx_-nR-57" target="7htmvvLscnNH-VEx_-nR-50">
          <mxGeometry relative="1" as="geometry" />
        </mxCell>
        <mxCell id="7htmvvLscnNH-VEx_-nR-57" value="Generate Reports" style="ellipse;whiteSpace=wrap;html=1;" vertex="1" parent="1">
          <mxGeometry x="250" y="830" width="90" height="70" as="geometry" />
        </mxCell>
        <mxCell id="7htmvvLscnNH-VEx_-nR-60" value="View Due Dates" style="ellipse;whiteSpace=wrap;html=1;" vertex="1" parent="1">
          <mxGeometry x="430" y="1000" width="90" height="70" as="geometry" />
        </mxCell>
        <mxCell id="7htmvvLscnNH-VEx_-nR-62" value="Add book" style="ellipse;whiteSpace=wrap;html=1;" vertex="1" parent="1">
          <mxGeometry x="430" y="480" width="90" height="70" as="geometry" />
        </mxCell>
        <mxCell id="7htmvvLscnNH-VEx_-nR-64" value="remove book" style="ellipse;whiteSpace=wrap;html=1;" vertex="1" parent="1">
          <mxGeometry x="430" y="680" width="90" height="70" as="geometry" />
        </mxCell>
        <mxCell id="7htmvvLscnNH-VEx_-nR-65" value="Update book" style="ellipse;whiteSpace=wrap;html=1;" vertex="1" parent="1">
          <mxGeometry x="430" y="580" width="90" height="70" as="geometry" />
        </mxCell>
        <mxCell id="7htmvvLscnNH-VEx_-nR-68" value="&amp;lt;&amp;lt;include&amp;gt;&amp;gt;" style="edgeStyle=orthogonalEdgeStyle;rounded=0;orthogonalLoop=1;jettySize=auto;html=1;exitX=1;exitY=1;exitDx=0;exitDy=0;entryX=0.009;entryY=0.583;entryDx=0;entryDy=0;entryPerimeter=0;dashed=1;" edge="1" parent="1" source="7htmvvLscnNH-VEx_-nR-53" target="7htmvvLscnNH-VEx_-nR-64">
          <mxGeometry relative="1" as="geometry" />
        </mxCell>
        <mxCell id="7htmvvLscnNH-VEx_-nR-69" value="remove book" style="ellipse;whiteSpace=wrap;html=1;" vertex="1" parent="1">
          <mxGeometry x="220" y="20" width="90" height="70" as="geometry" />
        </mxCell>
        <mxCell id="7htmvvLscnNH-VEx_-nR-70" value="export pdf" style="ellipse;whiteSpace=wrap;html=1;" vertex="1" parent="1">
          <mxGeometry x="430" y="765" width="90" height="70" as="geometry" />
        </mxCell>
        <mxCell id="7htmvvLscnNH-VEx_-nR-71" value="export excel" style="ellipse;whiteSpace=wrap;html=1;" vertex="1" parent="1">
          <mxGeometry x="430" y="890" width="90" height="70" as="geometry" />
        </mxCell>
        <mxCell id="7htmvvLscnNH-VEx_-nR-73" value="&amp;lt;&amp;lt;include&amp;gt;&amp;gt;" style="edgeStyle=orthogonalEdgeStyle;rounded=0;orthogonalLoop=1;jettySize=auto;html=1;exitX=1;exitY=1;exitDx=0;exitDy=0;entryX=0.022;entryY=0.588;entryDx=0;entryDy=0;entryPerimeter=0;dashed=1;" edge="1" parent="1" source="7htmvvLscnNH-VEx_-nR-57" target="7htmvvLscnNH-VEx_-nR-71">
          <mxGeometry relative="1" as="geometry" />
        </mxCell>
      </root>
    </mxGraphModel>
  </diagram>
</mxfile>
